<svg width="88" height="29" viewBox="0 0 88 29" fill="none" xmlns="http://www.w3.org/2000/svg">
<path d="M15.309 19.677C15.309 21.522 14.9605 23.1073 14.2635 24.433C13.5801 25.745 12.5961 26.7495 11.3115 27.4465C10.0405 28.1435 8.53715 28.492 6.80148 28.492C5.54415 28.492 4.45081 28.328 3.52148 28C2.59215 27.6857 1.85415 27.344 1.30748 26.975C0.760812 26.5923 0.425979 26.3053 0.302979 26.114L2.59898 20.8045C2.76298 21.0368 2.99531 21.2897 3.29598 21.563C3.59665 21.8363 3.96565 22.0755 4.40298 22.2805C4.84031 22.4718 5.33231 22.5675 5.87898 22.5675C6.50765 22.5675 7.06798 22.4377 7.55998 22.178C8.05198 21.9183 8.44148 21.4878 8.72848 20.8865C9.02915 20.2852 9.17948 19.4857 9.17948 18.488V0.940014H15.309V19.677Z" fill="white"/>
<path d="M33.8474 22.424C35.1047 22.424 36.2459 22.2395 37.2709 21.8705C38.3096 21.5015 39.0817 21.1393 39.5874 20.784L42.2114 25.991C41.5691 26.5377 40.4689 27.0912 38.9109 27.6515C37.3666 28.2118 35.5284 28.492 33.3964 28.492C31.4011 28.492 29.5287 28.1435 27.7794 27.4465C26.0301 26.7495 24.4857 25.7723 23.1464 24.515C21.8207 23.244 20.7752 21.7612 20.0099 20.0665C19.2582 18.3582 18.8824 16.5063 18.8824 14.511C18.8824 12.5157 19.2582 10.6638 20.0099 8.95551C20.7616 7.23351 21.8002 5.73701 23.1259 4.46602C24.4652 3.19501 26.0096 2.21101 27.7589 1.51401C29.5219 0.803347 31.4011 0.448013 33.3964 0.448013C35.5284 0.448013 37.3666 0.72818 38.9109 1.28851C40.4689 1.84885 41.5691 2.40235 42.2114 2.94902L39.5874 8.15601C39.0817 7.78701 38.3096 7.42485 37.2709 7.06951C36.2459 6.70051 35.1047 6.51601 33.8474 6.51601C32.4534 6.51601 31.2371 6.73468 30.1984 7.17201C29.1597 7.59568 28.2919 8.18335 27.5949 8.93501C26.8979 9.68668 26.3786 10.534 26.0369 11.477C25.6952 12.42 25.5244 13.4108 25.5244 14.4495C25.5244 15.5018 25.6952 16.5063 26.0369 17.463C26.3786 18.406 26.8979 19.2533 27.5949 20.005C28.2919 20.7567 29.1597 21.3512 30.1984 21.7885C31.2371 22.2122 32.4534 22.424 33.8474 22.424Z" fill="white"/>
<path d="M46.8085 0.140015H52.4575C53.2625 0.140015 53.98 0.308015 54.61 0.644014C55.24 0.980014 55.737 1.46651 56.101 2.10352C56.472 2.73351 56.6575 3.48601 56.6575 4.36101C56.6575 5.23601 56.5 5.95351 56.185 6.51351C55.877 7.06651 55.506 7.48302 55.072 7.76301C54.638 8.03602 54.2355 8.20051 53.8645 8.25651L57.235 14H53.707L50.704 8.49801H49.948V14H46.8085V0.140015ZM49.948 6.32452H51.334C51.894 6.32452 52.384 6.18801 52.804 5.91501C53.224 5.64201 53.434 5.15902 53.434 4.46601C53.434 3.77301 53.2275 3.29351 52.8145 3.02751C52.4015 2.75451 51.915 2.61801 51.355 2.61801H49.948V6.32452Z" fill="white"/>
<path d="M59.4147 0.140015H62.5542V14H59.4147V0.140015Z" fill="white"/>
<path d="M65.0639 0.140015H73.0754V2.89101H68.2034V5.68401H72.7079V8.42451H68.2034V14H65.0639V0.140015Z" fill="white"/>
<path d="M78.8049 0.140015H81.9234L87.3939 14H84.0444L83.0364 11.2175H77.7024L76.6839 14H73.3239L78.8049 0.140015ZM78.7524 8.46652H81.9969L80.3904 3.92001H80.3589L78.7524 8.46652Z" fill="white"/>
<path d="M47 16H87V28H47V16Z" fill="#FFC927"/>
<path d="M56 22C56 20.8954 56.8954 20 58 20H76C77.1045 20 78 20.8954 78 22C78 23.1046 77.1045 24 76 24H58C56.8954 24 56 23.1046 56 22Z" fill="#E2B220"/>
<path d="M88 19.5C88 20.3284 87.3284 21 86.5 21C85.6715 21 85 20.3284 85 19.5C85 18.6716 85.6715 18 86.5 18C87.3284 18 88 18.6716 88 19.5Z" fill="#151944"/>
<path d="M49 19.5C49 20.3284 48.3284 21 47.5 21C46.6715 21 46 20.3284 46 19.5C46 18.6716 46.6715 18 47.5 18C48.3284 18 49 18.6716 49 19.5Z" fill="#151944"/>
<path d="M88 24.5C88 25.3284 87.3284 26 86.5 26C85.6715 26 85 25.3284 85 24.5C85 23.6716 85.6715 23 86.5 23C87.3284 23 88 23.6716 88 24.5Z" fill="#151944"/>
<path d="M49 24.5C49 25.3284 48.3284 26 47.5 26C46.6715 26 46 25.3284 46 24.5C46 23.6716 46.6715 23 47.5 23C48.3284 23 49 23.6716 49 24.5Z" fill="#151944"/>
</svg>
